<?xml version="1.0" encoding="utf-8"?>
<!-- Generator: Adobe Illustrator 19.2.0, SVG Export Plug-In . SVG Version: 6.00 Build 0)  -->
<svg version="1.1" id="Layer_1" xmlns="http://www.w3.org/2000/svg" xmlns:xlink="http://www.w3.org/1999/xlink" x="0px" y="0px"
	 viewBox="0 0 800 700" style="enable-background:new 0 0 800 700;" xml:space="preserve">
<style type="text/css">
	.st0{fill:#4D4D69;}
	.st1{fill:url(#SVGID_1_);}
	.st2{fill:url(#SVGID_2_);}
	.st3{fill:url(#SVGID_3_);}
	.st4{fill:url(#SVGID_4_);}
	.st5{fill:url(#SVGID_5_);}
</style>
<g>
	<g>
		<path class="st0" d="M156.2,470.1l-5.3,13h-5.3l19.3-46.6h4.7l19.3,46.6h-5.3l-5.3-13l-2-4.7l-9-22l-9,22"/>
		<path class="st0" d="M197.4,483.1v-46.6h5v42h24v4.7H197.4z"/>
		<path class="st0" d="M234.7,483.1v-46.6h5v42h24v4.7H234.7z"/>
		<path class="st0" d="M304.6,478.4v4.7H272v-46.6h32v4.7h-27v15.3h21.6v4.7H277v17.3H304.6z"/>
		<path class="st0" d="M333.2,436.5c4.1,0,7.5,1.3,10.3,4c2.7,2.7,4.1,6,4.1,10c0,2-0.3,3.8-1,5.5s-1.5,2.9-2.4,3.9
			c-0.9,0.9-1.9,1.7-2.8,2.4c-1,0.7-1.8,1.1-2.4,1.3l-1,0.3l11,19.3h-5.7l-10.3-18.6h-13.3v18.6h-5v-46.6H333.2z M319.6,441.1v18.6
			h13.6c2.8,0,5.1-0.8,6.8-2.5s2.5-3.9,2.5-6.8s-0.8-5.1-2.5-6.8s-4-2.5-6.8-2.5H319.6z"/>
		<path class="st0" d="M359.5,436.5h5v46.6h-5V436.5z"/>
		<path class="st0" d="M406.7,474.9c2.7-2.8,4.1-6.2,4.1-10.1v-28.3h5v28.3c0,5.2-1.9,9.6-5.6,13.4s-8.2,5.6-13.4,5.6
			s-9.6-1.9-13.4-5.6c-3.8-3.8-5.6-8.2-5.6-13.3v-28.3h5v28.3c0,4,1.4,7.4,4.1,10.1s6,4.2,9.9,4.2S403.9,477.7,406.7,474.9z"/>
		<path class="st0" d="M452.7,469.8l-18.6-24.6v38h-5v-46.6h4.3l19.3,25.3l19.3-25.3h4.3v46.6h-5v-38L452.7,469.8z"/>
		<path class="st0" d="M489.3,483.1v-46.6h10v37.7H521v9H489.3z"/>
		<path class="st0" d="M539.8,472.1l-4,11h-10.7l18.3-46.6h10.6l18.3,46.6h-10.7l-4-11l-3.3-8.7l-5.7-15.3l-5.7,15.3"/>
		<path class="st0" d="M577.2,483.1v-46.6h20c4.2,0,7.7,1.2,10.5,3.7c2.8,2.5,4.1,5.3,4.1,8.6c0,1.2-0.2,2.4-0.5,3.5
			c-0.3,1.1-0.8,2-1.3,2.8c-0.5,0.7-1.1,1.4-1.6,1.9s-1,0.9-1.3,1.1l-0.6,0.3c0.2,0.1,0.5,0.2,0.8,0.4s0.9,0.6,1.8,1.2
			c0.9,0.6,1.7,1.3,2.3,2.1s1.3,1.8,1.8,3.1c0.6,1.3,0.8,2.7,0.8,4.2c0,3.7-1.5,6.9-4.5,9.6s-6.8,4-11.4,4H577.2z M587.3,444.8v10
			h9.3c1.6,0,2.9-0.5,3.9-1.4c1-0.9,1.4-2.1,1.4-3.6c0-1.5-0.5-2.7-1.4-3.6s-2.3-1.4-3.9-1.4H587.3z M597.9,474.8
			c1.8,0,3.3-0.6,4.5-1.7s1.8-2.6,1.8-4.3s-0.6-3.1-1.8-4.3c-1.2-1.2-2.7-1.7-4.5-1.7h-10.6v12H597.9z"/>
		<path class="st0" d="M641.5,465.7c-1.6-1-3.5-1.8-5.8-2.4c-2.3-0.6-4.5-1.4-6.8-2.3s-4.2-2.3-5.7-4.3c-1.6-2-2.4-4.5-2.4-7.6
			c0-3.8,1.5-7,4.5-9.7c3-2.7,7-4,11.8-4c1.9,0,3.8,0.2,5.5,0.7c1.8,0.4,3.2,1,4.4,1.6c1.1,0.6,2.1,1.2,3,1.8
			c0.9,0.6,1.5,1.2,1.8,1.6l0.6,0.7l-6,6.3c-0.3-0.3-0.6-0.7-1.1-1.1c-0.5-0.4-1.4-1-2.9-1.8c-1.5-0.7-3-1.1-4.6-1.1
			c-1.9,0-3.4,0.5-4.6,1.5c-1.2,1-1.7,2.2-1.7,3.5c0,1.6,0.8,2.8,2.4,3.8c1.6,0.9,3.5,1.7,5.7,2.4c2.2,0.7,4.5,1.4,6.8,2.3
			c2.3,0.9,4.2,2.3,5.8,4.3c1.6,2,2.4,4.5,2.4,7.6c0,4.3-1.6,7.8-4.7,10.6c-3.1,2.7-7.5,4.1-13,4.1c-2.2,0-4.3-0.3-6.3-0.8
			c-2-0.5-3.7-1.2-5-1.9c-1.3-0.7-2.5-1.5-3.5-2.2c-1-0.8-1.7-1.4-2.1-1.9l-0.7-0.8l6-6c0.3,0.3,0.7,0.8,1.3,1.3
			c0.6,0.6,1.8,1.3,3.7,2.2c1.9,0.9,3.9,1.4,6,1.4c2.4,0,4.3-0.6,5.6-1.7c1.4-1.1,2-2.6,2-4.3C643.8,467.9,643.1,466.6,641.5,465.7z
			"/>
	</g>
	<g>
		<linearGradient id="SVGID_1_" gradientUnits="userSpaceOnUse" x1="473.3234" y1="253.7663" x2="346.7233" y2="361.511">
			<stop  offset="0" style="stop-color:#844AFD"/>
			<stop  offset="1" style="stop-color:#0EB8FF"/>
		</linearGradient>
		<path class="st1" d="M428.8,264.1c-6.3-9.1-28.7-37.2-37.2-47.8c-0.8-1-2.3-0.2-2,1l3.3,13.1c2.7,10.8-3.7,21.3-14.1,33.9
			c-2.6,3.1-5.4,6.3-8.3,9.7c-10.7,12.2-22.7,26-29.9,42.5c0,0,0,0-0.1,0l-1.1,2.7l-0.6,1.6l0,0c-3.2,8.6-4.8,17.1-4.8,26
			c0,23.5,13,44.6,33.4,55.4l-0.2,0.2l5.3,2.2l2,0.8l0,0c7.1,2.7,14.5,4,22.1,4c19.4,0,37.9-10,49.9-26.8l0.1,0l0.6-1c0,0,0,0,0,0
			c0.1-0.2,0.3-0.4,0.4-0.6l1.2-1.7c0,0,0,0,0,0c0,0-0.1-0.1-0.1-0.1c0.1,0,0.2-0.1,0.2-0.1l1-1.8c6-10.3,9.2-21.9,9.2-33.5
			C459.1,320.3,448.9,293.5,428.8,264.1z M452.1,343.8c0,9.3-2.3,18.7-6.7,27.2c-0.4-0.2-0.7-0.4-1.1-0.5c-0.6-0.3-1.2-0.6-1.8-1
			c-0.9-0.5-1.8-1-2.7-1.5c-0.6-0.3-1.2-0.7-1.8-1.1c-0.9-0.5-1.8-1.1-2.7-1.7c-0.6-0.4-1.1-0.7-1.7-1.1c-1-0.7-1.9-1.3-2.9-2
			c-0.4-0.3-0.9-0.6-1.3-0.9c-1.4-1-2.7-2-4-3.1c-0.1-0.1-0.3-0.3-0.4-0.4c-1.2-1-2.3-1.9-3.4-3c-0.4-0.4-0.8-0.8-1.3-1.2
			c-0.8-0.8-1.7-1.6-2.5-2.4c-0.5-0.5-0.9-0.9-1.4-1.4c-0.5-0.5-0.9-1-1.4-1.5c0-0.1,0-0.1,0.1-0.2c0.6-1.6,1.1-3.2,1.6-4.8
			c0.1-0.2,0.1-0.5,0.2-0.7c0.5-1.6,1-3.2,1.4-4.8c0.1-0.2,0.1-0.5,0.2-0.7c0.4-1.6,0.8-3.2,1.2-4.9c0.1-0.2,0.1-0.5,0.2-0.7
			c0.4-1.6,0.7-3.3,1-4.9c0-0.2,0.1-0.5,0.1-0.7c0.3-1.7,0.5-3.3,0.8-5c0-0.2,0.1-0.4,0.1-0.6c0.2-1.7,0.4-3.4,0.6-5.2
			c0-0.2,0-0.3,0-0.5c0.1-1.8,0.3-3.5,0.3-5.3c0-0.1,0-0.2,0-0.3c0.1-1.9,0.1-3.7,0.1-5.6c0-1.5,0-3.1-0.1-4.6c0-0.3,0-0.6,0-0.8
			c-0.1-1.5-0.1-2.9-0.3-4.4c0-0.3,0-0.6-0.1-0.8c-0.1-1.5-0.3-3-0.4-4.5c0,0,0,0,0-0.1c-0.2-1.5-0.4-3-0.6-4.4
			c0-0.3-0.1-0.6-0.1-0.9c-0.2-1.4-0.5-2.9-0.7-4.3c-0.1-0.3-0.1-0.6-0.2-0.9c-0.3-1.5-0.6-2.9-0.9-4.4c0,0,0-0.1,0-0.1
			c-0.3-1.4-0.7-2.8-1.1-4.3c-0.1-0.3-0.1-0.6-0.2-0.8c-0.4-1.4-0.8-2.8-1.2-4.1c-0.1-0.3-0.2-0.6-0.3-0.8c-0.5-1.4-0.9-2.8-1.4-4.2
			c0,0,0-0.1,0-0.1c-0.3-0.9-0.7-1.8-1-2.7C431,278,452.1,311.9,452.1,343.8z M434,375c-0.4,0-0.9-0.1-1.3-0.2
			c-1.2-0.1-2.5-0.3-3.7-0.5c-0.5-0.1-1.1-0.2-1.6-0.3c-1.2-0.2-2.4-0.4-3.5-0.6c-0.5-0.1-0.9-0.2-1.4-0.3c-1.6-0.3-3.2-0.7-4.8-1.1
			c-0.3-0.1-0.6-0.2-0.8-0.2c-1.3-0.3-2.6-0.7-4-1.1c-0.5-0.2-1-0.3-1.6-0.5c-1.1-0.3-2.2-0.7-3.3-1.1c-0.5-0.2-1-0.4-1.5-0.5
			c-0.3-0.1-0.5-0.2-0.8-0.3c0.1-0.2,0.2-0.4,0.4-0.6c0.3-0.6,0.7-1.2,1-1.8c0.2-0.4,0.4-0.8,0.6-1.1c0.3-0.7,0.7-1.3,1-2
			c0.2-0.3,0.3-0.7,0.5-1c0.5-0.9,0.9-1.9,1.4-2.8c0-0.1,0.1-0.1,0.1-0.2c0.5-1,0.9-2,1.4-3c0,0,0-0.1,0-0.1l0.1,0.1l0.1-0.1
			c0,0,0.1,0.1,0.1,0.1c0.2,0.2,0.3,0.3,0.5,0.5c1.1,1.1,2.2,2.1,3.3,3.1c0.4,0.3,0.7,0.7,1.1,1c1.1,0.9,2.1,1.9,3.2,2.8
			c0.3,0.2,0.5,0.4,0.8,0.6c1.3,1.1,2.7,2.1,4,3.1c0.3,0.3,0.7,0.5,1,0.7c1.1,0.8,2.2,1.6,3.3,2.3c0.4,0.3,0.8,0.5,1.2,0.8
			c1.4,0.9,2.9,1.9,4.4,2.7c0,0,0.1,0,0.1,0.1c1.1,0.7,2.3,1.3,3.5,2C437.2,375.2,435.6,375.1,434,375z M399.7,241.7
			c4.8,8.5,8.6,17.5,11.3,26.8c0,0.2,0.1,0.3,0.1,0.5c0.3,1.2,0.6,2.3,0.9,3.5c0.1,0.3,0.1,0.6,0.2,0.9c0.3,1.1,0.5,2.1,0.7,3.2
			c0.1,0.4,0.2,0.7,0.2,1.1c0.2,1,0.4,2,0.6,3c0.1,0.4,0.2,0.9,0.2,1.3c0.2,0.9,0.3,1.9,0.5,2.8c0.1,0.5,0.1,0.9,0.2,1.4
			c0.1,0.9,0.2,1.8,0.3,2.8c0.1,0.5,0.1,1,0.2,1.5c0.1,0.9,0.2,1.8,0.2,2.8c0,0.5,0.1,1,0.1,1.5c0.1,1,0.1,2,0.2,3
			c0,0.4,0,0.9,0.1,1.3c0,1.4,0.1,2.8,0.1,4.3c0,1.8,0,3.6-0.1,5.4c0,0.6-0.1,1.2-0.1,1.7c-0.1,1.2-0.1,2.4-0.2,3.7
			c-0.1,0.7-0.1,1.4-0.2,2c-0.1,1.1-0.2,2.2-0.4,3.3c-0.1,0.7-0.2,1.4-0.3,2.1c-0.2,1.1-0.3,2.2-0.5,3.3c-0.1,0.7-0.2,1.4-0.4,2.1
			c-0.2,1.1-0.4,2.2-0.7,3.3c-0.1,0.6-0.3,1.3-0.4,1.9c-0.3,1.2-0.6,2.5-0.9,3.7c-0.1,0.5-0.3,1-0.4,1.5c-0.5,1.7-1,3.4-1.5,5
			c-0.6-0.8-1.2-1.5-1.8-2.3c-0.3-0.4-0.7-0.9-1-1.3c-1-1.3-2-2.6-2.9-4c-0.1-0.1-0.2-0.3-0.3-0.4c-0.8-1.2-1.7-2.5-2.4-3.7
			c-0.3-0.5-0.6-1-0.9-1.5c-0.5-0.9-1.1-1.8-1.6-2.7c-0.3-0.6-0.6-1.2-1-1.8c-0.5-0.8-0.9-1.7-1.3-2.5c-0.3-0.6-0.6-1.3-0.9-1.9
			c-0.4-0.8-0.8-1.7-1.2-2.5c-0.3-0.7-0.6-1.3-0.9-2c-0.4-0.8-0.7-1.7-1-2.5c-0.3-0.7-0.5-1.4-0.8-2.1c-0.3-0.8-0.6-1.7-0.9-2.5
			c-0.2-0.7-0.5-1.4-0.7-2.1c-0.3-0.8-0.5-1.7-0.8-2.6c-0.2-0.7-0.4-1.4-0.6-2.1c-0.2-0.9-0.5-1.7-0.7-2.6c-0.2-0.7-0.4-1.4-0.5-2.1
			c-0.2-0.9-0.4-1.8-0.6-2.7c-0.1-0.7-0.3-1.4-0.4-2.1c-0.2-0.9-0.3-1.9-0.5-2.8c-0.1-0.7-0.2-1.4-0.3-2.1c-0.1-1-0.2-2-0.3-2.9
			c-0.1-0.7-0.2-1.3-0.2-2c-0.1-1.1-0.2-2.2-0.2-3.3c0-0.5-0.1-1.1-0.1-1.6c-0.1-1.7-0.1-3.3-0.1-5c0-1.4,0-2.8,0.1-4.2
			c0-0.2,0-0.4,0-0.5C392.4,258.6,397.9,250.2,399.7,241.7z M375.6,278.5c0.7-0.8,1.5-1.7,2.2-2.5c0,0.3,0,0.7,0.1,1
			c0,0.8,0.1,1.6,0.1,2.4c0.1,1,0.1,1.9,0.2,2.9c0.1,0.8,0.1,1.6,0.2,2.4c0.1,1,0.2,1.9,0.3,2.9c0.1,0.8,0.2,1.6,0.3,2.4
			c0.1,0.9,0.3,1.9,0.5,2.8c0.1,0.8,0.3,1.6,0.4,2.3c0.2,0.9,0.4,1.9,0.6,2.8c0.2,0.8,0.3,1.5,0.5,2.3c0.2,0.9,0.5,1.9,0.7,2.8
			c0.2,0.7,0.4,1.5,0.6,2.2c0.3,1,0.6,1.9,0.9,2.8c0.2,0.7,0.4,1.4,0.7,2.1c0.3,1,0.7,2,1.1,2.9c0.2,0.7,0.5,1.3,0.7,2
			c0.4,1.1,0.9,2.1,1.3,3.2c0.2,0.5,0.4,1.1,0.7,1.6c0.7,1.6,1.4,3.2,2.2,4.7c0.1,0.2,0.2,0.4,0.3,0.6c0.7,1.4,1.4,2.7,2.1,4.1
			c0.3,0.5,0.6,1.1,0.9,1.6c0.6,1,1.1,1.9,1.7,2.9c0.4,0.6,0.8,1.2,1.2,1.8c0.6,0.9,1.1,1.7,1.7,2.6c0.4,0.6,0.9,1.2,1.3,1.9
			c0.6,0.8,1.2,1.6,1.8,2.4c0.5,0.6,0.9,1.2,1.4,1.8c0.6,0.8,1.2,1.6,1.8,2.3c0.5,0.6,1,1.2,1.5,1.8c0.4,0.4,0.7,0.9,1.1,1.3
			c-0.3,0.8-0.6,1.6-1,2.4c-0.2,0.4-0.4,0.8-0.5,1.3c-0.7,1.6-1.4,3.1-2.2,4.7c-0.1,0.3-0.3,0.6-0.4,0.9c-0.6,1.3-1.3,2.5-1.9,3.7
			c-0.3,0.5-0.5,1-0.8,1.5c-0.3,0.5-0.6,1-0.9,1.5c-0.2-0.1-0.5-0.2-0.7-0.3c-0.6-0.3-1.3-0.6-1.9-0.9c-0.7-0.3-1.5-0.7-2.2-1.1
			c-0.6-0.3-1.2-0.6-1.8-0.9c-0.7-0.4-1.5-0.8-2.2-1.2c-0.6-0.3-1.1-0.6-1.7-1c-0.8-0.4-1.5-0.9-2.3-1.3c-0.5-0.3-1-0.6-1.6-0.9
			c-0.8-0.5-1.6-1-2.4-1.5c-0.5-0.3-0.9-0.6-1.4-0.9c-0.8-0.6-1.7-1.1-2.5-1.7c-0.4-0.3-0.8-0.6-1.2-0.8c-0.9-0.6-1.8-1.3-2.6-2
			c-0.3-0.2-0.6-0.5-0.9-0.7c-0.9-0.7-1.9-1.5-2.8-2.3c-0.2-0.2-0.5-0.4-0.7-0.6c-1-0.9-2-1.7-3-2.6c-0.1-0.1-0.2-0.2-0.4-0.3
			c-7.9-7.2-14.7-15.5-20.4-24.5C353.2,304.2,365.1,290.6,375.6,278.5z M340.9,346.8c0-6.3,0.9-12.4,2.6-18.4
			c0.3,0.4,0.6,0.9,0.9,1.3c0.4,0.5,0.7,1,1.1,1.5c0.6,0.8,1.2,1.6,1.8,2.5c0.3,0.4,0.7,0.9,1,1.3c0.8,1.1,1.7,2.1,2.5,3.1
			c0.1,0.2,0.3,0.3,0.4,0.5c1,1.2,2,2.3,3.1,3.5c0.3,0.4,0.7,0.7,1,1.1c0.7,0.8,1.5,1.6,2.2,2.3c0.4,0.4,0.8,0.8,1.3,1.3
			c0.7,0.7,1.4,1.4,2.1,2c0.5,0.4,0.9,0.8,1.4,1.3c0.7,0.7,1.4,1.3,2.2,1.9c0.5,0.4,0.9,0.8,1.4,1.2c0.8,0.7,1.6,1.3,2.4,2
			c0.4,0.3,0.8,0.7,1.3,1c1.1,0.8,2.1,1.6,3.2,2.4c0.2,0.1,0.3,0.3,0.5,0.4c1.3,0.9,2.5,1.8,3.8,2.7c0.4,0.3,0.8,0.5,1.2,0.8
			c0.9,0.6,1.8,1.2,2.8,1.8c0.5,0.3,1,0.6,1.5,0.9c0.9,0.5,1.7,1,2.6,1.5c0.5,0.3,1,0.6,1.6,0.9c0.9,0.5,1.7,0.9,2.6,1.4
			c0.5,0.3,1,0.5,1.6,0.8c0.9,0.5,1.9,0.9,2.9,1.4c0.5,0.2,0.9,0.4,1.4,0.6c0.1,0.1,0.3,0.1,0.4,0.2c-0.1,0.1-0.2,0.3-0.3,0.5
			c-0.3,0.5-0.6,0.9-0.9,1.4c-0.6,0.8-1.2,1.7-1.7,2.5c-0.4,0.5-0.7,1-1.1,1.5c-0.6,0.8-1.2,1.6-1.8,2.3c-0.4,0.5-0.7,1-1.1,1.4
			c-0.6,0.8-1.3,1.6-2,2.4c-0.4,0.4-0.7,0.8-1.1,1.2c-0.9,1-1.7,2-2.6,2.9c-0.2,0.2-0.3,0.4-0.5,0.6c-1.1,1.1-2.1,2.2-3.2,3.3
			c-0.3,0.3-0.7,0.7-1,1c-0.8,0.8-1.6,1.5-2.4,2.2c-0.4,0.4-0.9,0.8-1.3,1.2c-0.4,0.4-0.9,0.8-1.3,1.1
			C353.5,388.2,340.9,368.6,340.9,346.8z M396.5,402.4c-5.5,0-10.9-0.8-16-2.3c1.1-1,2.2-2,3.2-3.1c0.2-0.2,0.5-0.5,0.7-0.7
			c0.9-0.9,1.8-1.8,2.7-2.7c0.4-0.4,0.7-0.8,1.1-1.2c0.8-0.8,1.5-1.7,2.2-2.5c0.4-0.4,0.7-0.8,1.1-1.2c0.8-1,1.7-2,2.5-3
			c0.2-0.3,0.4-0.5,0.6-0.7c1-1.3,2-2.5,2.9-3.8c0.2-0.3,0.5-0.7,0.7-1c0.7-1,1.4-2,2.1-3c0.3-0.4,0.6-0.9,0.9-1.3
			c0.3-0.4,0.5-0.8,0.8-1.2l0,0l0,0c0,0,0,0,0,0c1.3,0.5,2.5,0.9,3.8,1.4c0.3,0.1,0.6,0.2,0.9,0.3c1.3,0.4,2.5,0.8,3.8,1.2
			c0.2,0.1,0.4,0.1,0.6,0.2c1.2,0.3,2.4,0.7,3.5,1c0.2,0.1,0.5,0.1,0.7,0.2c1.3,0.3,2.6,0.6,3.9,0.9c0.3,0.1,0.6,0.1,0.8,0.2
			c1.3,0.3,2.5,0.5,3.8,0.8c0.1,0,0.2,0,0.3,0.1c1.3,0.2,2.7,0.5,4,0.6c0.3,0,0.6,0.1,0.9,0.1c1.3,0.2,2.7,0.4,4,0.5
			c0.2,0,0.4,0,0.5,0.1c1.2,0.1,2.5,0.2,3.7,0.3c0.2,0,0.4,0,0.5,0C427.3,395,412.2,402.4,396.5,402.4z"/>
		<g>
			<linearGradient id="SVGID_2_" gradientUnits="userSpaceOnUse" x1="468.3152" y1="247.8816" x2="341.7151" y2="355.6264">
				<stop  offset="0" style="stop-color:#844AFD"/>
				<stop  offset="1" style="stop-color:#0EB8FF"/>
			</linearGradient>
			<circle class="st2" cx="389.3" cy="315.1" r="9.4"/>
			<linearGradient id="SVGID_3_" gradientUnits="userSpaceOnUse" x1="481.1974" y1="263.0182" x2="354.5973" y2="370.7629">
				<stop  offset="0" style="stop-color:#844AFD"/>
				<stop  offset="1" style="stop-color:#0EB8FF"/>
			</linearGradient>
			<circle class="st3" cx="373.8" cy="354.4" r="7.7"/>
			<linearGradient id="SVGID_4_" gradientUnits="userSpaceOnUse" x1="510.6906" y1="297.6728" x2="384.0905" y2="405.4175">
				<stop  offset="0" style="stop-color:#844AFD"/>
				<stop  offset="1" style="stop-color:#0EB8FF"/>
			</linearGradient>
			<circle class="st4" cx="419.2" cy="375.6" r="6.7"/>
			<linearGradient id="SVGID_5_" gradientUnits="userSpaceOnUse" x1="445.3628" y1="220.9126" x2="318.7627" y2="328.6573">
				<stop  offset="0" style="stop-color:#844AFD"/>
				<stop  offset="1" style="stop-color:#0EB8FF"/>
			</linearGradient>
			<circle class="st5" cx="354.6" cy="298.1" r="8.1"/>
		</g>
	</g>
</g>
</svg>
